# AST/ASF file generated using VICON BodyLanguage
# -----------------------------------------------
:version 1.10
:name VICON
:units
  mass 1.0
  length 0.45
  angle deg
:documentation
   .ast/.asf automatically generated from VICON data using
   VICON BodyBuilder and BodyLanguage model FoxedUp or BRILLIANT.MOD
:root
   order TX TY TZ RX RY RZ
   axis XYZ
   position 0 0 0  
   orientation 0 0 0 
:bonedata
  begin
     id 1 
     name lhipjoint
     direction 0.528046 -0.759594 0.379717 
     length 2.39752 
     axis 0 0 0  XYZ
  end
  begin
     id 2 
     name lfemur
     direction 0.34202 -0.939693 0  
     length 7.31175  
     axis 0 0 20  XYZ
    dof rx ry rz
    limits (-160.0 20.0)
           (-70.0 70.0)
           (-60.0 70.0)
  end
  begin
     id 3 
     name ltibia
     direction 0.34202 -0.939693 0   
     length 7.52482   
     axis 0 0 20   XYZ
    dof rx
    limits (-10.0 170.0)
  end
  begin
     id 4 
     name lfoot
     direction 0.0675379 -0.185559 0.980309   
     length 2.00961   
     axis -90 7.62852e-016 20   XYZ
    dof rx rz
    limits (-45.0 90.0)
           (-70.0 20.0)
  end
  begin
     id 5 
     name ltoes
     direction 1.5352e-011 -4.22286e-011 1   
     length 1.01383   
     axis -90 7.62852e-016 20   XYZ
    dof rx
    limits (-90.0 20.0)
  end
  begin
     id 6 
     name rhipjoint
     direction -0.510274 -0.769251 0.384544   
     length 2.36742  
     axis 0 0 0  XYZ 
  end
  begin
     id 7 
     name rfemur
     direction -0.34202 -0.939693 0   
     length 7.45325   
     axis 0 0 -20   XYZ
    dof rx ry rz
    limits (-160.0 20.0)
           (-70.0 70.0)
           (-70.0 60.0)
  end
  begin
     id 8 
     name rtibia
     direction -0.34202 -0.939693 0   
     length 7.49587   
     axis 0 0 -20   XYZ
    dof rx
    limits (-10.0 170.0)
 end
 begin
     id 9 
     name rfoot
     direction -0.106475 -0.292536 0.950308   
     length 2.20898  
     axis -90 -7.62852e-016 -20   XYZ
    dof rx rz
    limits (-45.0 90.0)
           (-20.0 70.0)
  end
  begin
     id 10 
     name rtoes
     direction -1.53597e-011 -4.22023e-011 1   
     length 1.10065   
     axis -90 -7.62852e-016 -20   XYZ
    dof rx
    limits (-90.0 20.0)
  end
  begin
     id 11 
     name lowerback
     direction 0.0260024 0.998026 -0.0571652   
     length 2.11214   
     axis 0 0 0   XYZ
    dof rx ry rz
    limits (-20.0 45.0)
           (-30.0 30.0)
           (-30.0 30.0)
  end
  begin
     id 12 
     name upperback
     direction 0.0216202 0.999542 -0.0211766   
     length 2.11689   
     axis 0 0 0   XYZ
    dof rx ry rz
    limits (-20.0 45.0)
           (-30.0 30.0)
           (-30.0 30.0)
  end
  begin
     id 13 
     name thorax
     direction 0.00883312 0.999944 0.00589057   
     length 2.11821   
     axis 0 0 0   XYZ
    dof rx ry rz
    limits (-20.0 45.0)
           (-30.0 30.0)
           (-30.0 30.0)
  end
  begin
     id 14 
     name lowerneck
     direction -0.059386 0.994433 0.0870401   
     length 1.81176   
     axis 0 0 0   XYZ
    dof rx ry rz
    limits (-20.0 45.0)
           (-30.0 30.0)
           (-30.0 30.0)
  end
  begin
     id 15 
     name upperneck
     direction 0.0506457 0.97328 -0.223967   
     length 1.82382   
     axis 0 0 0   XYZ
    dof rx ry rz
    limits (-20.0 45.0)
           (-30.0 30.0)
           (-30.0 30.0)
  end
  begin
     id 16
     name head
     direction 0.0205902 0.996147 -0.0852487  
     length 1.84805  
     axis 0 0 0   XYZ
    dof rx ry rz
    limits (-20.0 45.0)
           (-30.0 30.0)
           (-30.0 30.0)
  end
  begin
     id 17 
     name lclavicle
     direction 0.949493 0.303881 -0.0782325  
     length 3.60584  
     axis 0 0 0   XYZ
    dof ry rz
    limits (-20.0 10.0)
           (0.0 20.0)
  end
  begin
     id 18 
     name lhumerus
     direction 1 -4.48965e-011 1.48782e-027   
     length 4.95681   
     axis 180 -30 -90   XYZ
    dof rx ry rz
    limits (-60.0 90.0)
           (-90.0 90.0)
           (-90.0 90.0)
  end
  begin
     id 19
     name lradius
     direction 1 -4.48952e-011 2.06528e-027   
     length 3.40915   
     axis 180 -30 -90   XYZ
    dof rx
    limits (-10.0 170.0)
  end
  begin
     id 20
     name lwrist
     direction 1 -4.48964e-011 1.28021e-027   
     length 1.70457   
     axis -1.61767e-015 90 90   XYZ
    dof ry
    limits (-180.0 0.0)
 end
  begin
     id 21 
     name lhand
     direction 1 -4.49094e-011 2.54887e-027   
     length 0.616403   
     axis -1.63363e-015 90 90   XYZ
    dof rx rz
    limits (-90.0 90.0)
           (-45.0 45.0)
  end
  begin
     id 22 
     name lfingers
     direction 1 -4.49002e-011 5.11407e-027   
     length 0.49696   
     axis -3.26723e-015 90 90   XYZ
    dof rx
    limits (0.0 90.0)
  end
  begin
     id 23
     name lthumb
     direction 0.707107 -6.34998e-011 0.707107   
     length 0.713539   
     axis -90 45 -2.25915e-014   XYZ
    dof rx rz
    limits (-45.0 45.0)
           (-45.0 45.0)
  end
  begin
     id 24 
     name rclavicle
     direction -0.937751 0.334612 -0.0930482   
     length 3.46287  
     axis 0 0 0   XYZ 
    dof ry rz
    limits (-10.0 20.0)
           (-20.0 0.0)
  end
  begin
     id 25 
     name rhumerus
     direction -1 -4.48962e-011 3.59972e-027  
     length 5.352   
     axis 180 30 90   XYZ
    dof rx ry rz
    limits (-90.0 60.0)
           (-90.0 90.0)
           (-90.0 90.0)
  end
  begin
     id 26 
     name rradius
     direction -1 -4.48987e-011 -3.76925e-027   
     length 3.43721   
     axis 180 30 90   XYZ
    dof rx
    limits (-10.0 170.0)
  end
  begin
     id 27 
     name rwrist
     direction -1 -4.48943e-011 1.28112e-027   
     length 1.7186   
     axis -1.61767e-015 -90 -90   XYZ
    dof ry
    limits (-180.0 0.0)
  end
  begin
     id 28
     name rhand
     direction -1 -4.49027e-011 2.55483e-027   
     length 0.72009   
     axis -1.63363e-015 -90 -90   XYZ
    dof rx rz
    limits (-90.0 90.0)
           (-45.0 45.0)
  end
  begin
     id 29
     name rfingers
     direction -1 -4.48827e-011 5.14506e-027   
     length 0.580555   
     axis -3.26723e-015 -90 -90   XYZ
    dof rx
    limits (0.0 90.0)
  end
  begin
     id 30
     name rthumb
     direction -0.707107 -6.34936e-011 0.707107   
     length 0.833564   
     axis -90 -45 2.25915e-014   XYZ
    dof rx rz
    limits (-45.0 45.0)
           (-45.0 45.0)
  end
:hierarchy
  begin
    root lhipjoint rhipjoint lowerback
    lhipjoint lfemur
    lfemur ltibia
    ltibia lfoot
    lfoot ltoes
    rhipjoint rfemur
    rfemur rtibia
    rtibia rfoot
    rfoot rtoes
    lowerback upperback
    upperback thorax
    thorax lowerneck lclavicle rclavicle
    lowerneck upperneck
    upperneck head
    lclavicle lhumerus
    lhumerus lradius
    lradius lwrist
    lwrist lhand lthumb
    lhand lfingers
    rclavicle rhumerus
    rhumerus rradius
    rradius rwrist
    rwrist rhand rthumb
    rhand rfingers
  end

#!OML:ASF H:\Terrain\Patient Classification 1\Terrain2\Thursday\justin.ASF
:FULLY-SPECIFIED
:DEGREES
733
root 18.8849 23.9112 22.1582 -174.109 33.0197 -172.215
lowerback 8.56376 -1.08879 7.09884
upperback 4.0949 -0.237148 5.63465
thorax -0.569641 0.170132 1.88537
lowerneck -11.7628 0.220481 -7.34962
upperneck 39.9317 8.06543 -2.47162
head 16.2513 3.22227 1.94646
rclavicle -4.05521e-014 6.36111e-014
rhumerus -33.2385 -3.85362 -75.17
rradius 33.7895
rwrist -12.6429
rhand -24.5083 13.9275
rfingers 7.12502
rthumb 1.98642 -16.043
lclavicle -4.05521e-014 6.36111e-014
lhumerus -39.1465 14.5128 79.5145
lradius 29.6288
lwrist 2.85912
lhand -19.1195 22.1863
lfingers 7.12502
lthumb 7.18983 52.0442
rfemur -10.8865 -2.71573 26.5859
rtibia 33.4184
rfoot -21.5921 1.29463
rtoes 16.3774
lfemur -24.6371 5.67172 -12.7645
ltibia 49.4909
lfoot -19.461 1.27446
ltoes -5.26647
734
root 18.9002 23.9077 22.1688 -174.317 32.4323 -172.436
lowerback 8.43829 -0.908554 7.05859
upperback 4.1044 -0.0370657 5.43308
thorax -0.486539 0.265444 1.67798
lowerneck -11.7638 0.153489 -7.0591
upperneck 39.9344 7.85965 -2.3673
head 16.254 3.20207 1.91045
rclavicle -3.26007e-014 -1.01778e-013
rhumerus -33.3979 -4.34882 -74.9805
rradius 33.879
rwrist -12.3684
rhand -24.8349 13.9544
rfingers 7.12502
rthumb 1.67102 -16.0188
lclavicle -3.26007e-014 -1.01778e-013
lhumerus -39.1952 14.2153 79.2011
lradius 29.3637
lwrist 2.72949
lhand -19.3119 21.5406
lfingers 7.12502
lthumb 7.00407 51.4047
rfemur -10.8134 -2.89059 26.5096
rtibia 33.4635
rfoot -21.7754 0.960347
rtoes 16.6908
lfemur -24.4488 6.66352 -13.082
ltibia 49.7273
lfoot -19.6971 1.15142
ltoes -2.12059
735
root 18.9137 23.9121 22.1829 -174.397 31.6246 -172.435
lowerback 8.44301 -0.835385 7.13349
upperback 4.00008 0.0642323 5.34925
thorax -0.595308 0.309701 1.53945
lowerneck -11.516 0.0569542 -6.88664
upperneck 39.8722 7.58894 -2.20606
head 16.1555 3.15857 1.89889
rclavicle -7.85199e-014 9.38264e-014
rhumerus -33.5154 -5.18416 -74.6486
rradius 33.7203
rwrist -11.8227
rhand -24.7865 14.2453
rfingers 7.12502
rthumb 1.71781 -15.7275
lclavicle -7.85199e-014 9.38264e-014
lhumerus -39.3641 14.0911 78.8634
lradius 29.0572
lwrist 2.42036
lhand -19.2176 21.3547
lfingers 7.12502
lthumb 7.09513 51.2158
rfemur -10.7773 -3.24908 26.6729
rtibia 33.5133
rfoot -21.8459 0.547283
rtoes 16.8803
lfemur -24.3692 7.70515 -13.2049
ltibia 49.869
lfoot -19.6059 1.25413
ltoes -2.70326
736
root 18.9275 23.9124 22.1995 -174.259 30.7369 -172.22
lowerback 8.3789 -0.991753 7.11678
upperback 3.89671 -0.125863 5.54278
thorax -0.672476 0.21626 1.76736
lowerneck -11.5277 0.126432 -6.98576
upperneck 39.8919 7.80015 -2.27736
head 16.1695 3.2321 1.92363
rclavicle 2.80286e-014 6.20208e-014
rhumerus -33.3287 -5.19628 -74.4075
rradius 33.6097
rwrist -11.7363
rhand -24.7779 14.3056
rfingers 7.12502
rthumb 1.72612 -15.6672
lclavicle 2.80286e-014 6.20208e-014
lhumerus -39.5918 14.711 78.5714
lradius 28.7129
lwrist 2.17052
lhand -19.2444 21.3691
lfingers 7.12502
lthumb 7.0692 51.2311
rfemur -10.8872 -3.46833 27.0813
rtibia 33.6076
rfoot -21.9283 -0.0241711
rtoes 17.0177
lfemur -24.4898 8.80579 -13.1644
ltibia 49.9221
lfoot -18.9996 1.35095
ltoes -5.20487
737
root 18.9373 23.9032 22.2062 -174.19 30.0356 -172.074
lowerback 8.27697 -1.08008 7.22112
upperback 3.85357 -0.234286 5.60911
thorax -0.663582 0.16595 1.7879
lowerneck -11.6722 0.205382 -7.01008
upperneck 39.9474 8.02041 -2.34942
head 16.2364 3.31252 1.942
rclavicle -5.56597e-014 1.59028e-015
rhumerus -33.2532 -4.8753 -74.3467
rradius 33.7216
rwrist -12.0492
rhand -25.1342 14.0413
rfingers 7.12502
rthumb 1.38196 -15.934
lclavicle -5.56597e-014 1.59028e-015
lhumerus -39.6675 15.0277 78.3696
lradius 28.4406
lwrist 2.1687
lhand -19.2964 21.6567
lfingers 7.12502
lthumb 7.01906 51.5203
rfemur -10.923 -3.58769 27.3537
rtibia 33.73
rfoot -22.0663 -0.468781
rtoes 16.9727
lfemur -24.4519 9.72176 -13.1821
ltibia 49.907
lfoot -19.0993 1.18793
ltoes -4.14278
738
root 18.9433 23.891 22.2023 -174.411 29.3334 -172.444
lowerback 8.11434 -0.941933 7.30319
upperback 3.76745 -0.0948422 5.2956
thorax -0.659979 0.223319 1.40136
lowerneck -11.3648 0.0548862 -6.89784
upperneck 39.8779 7.65272 -2.11918
head 16.1147 3.23237 1.95276
rclavicle 1.34975e-013 2.46493e-014
rhumerus -33.5747 -5.2108 -74.2988
rradius 33.9202
rwrist -12.4627
rhand -25.4648 13.7044
rfingers 7.12502
rthumb 1.06268 -16.2727
lclavicle 1.34975e-013 2.46493e-014
lhumerus -39.6406 14.6138 78.1463
lradius 28.1775
lwrist 2.10856
lhand -19.0784 21.9515
lfingers 7.12502
lthumb 7.22946 51.808
rfemur -10.9209 -4.15042 27.0569
rtibia 33.8573
rfoot -22.2228 -0.712166
rtoes 16.1234
lfemur -24.2303 10.4066 -13.7338
ltibia 49.8078
lfoot -18.8562 1.21993
ltoes -3.44626
739
root 18.9526 23.8844 22.1995 -174.559 28.4916 -172.787
lowerback 7.9595 -0.767346 7.37634
upperback 3.61535 0.0974405 5.0035
thorax -0.725376 0.30317 1.03867
lowerneck -11.1829 -0.192837 -6.57951
upperneck 39.9776 7.22077 -2.04925
head 16.1346 3.1333 1.86246
rclavicle -2.127e-014 4.45278e-014
rhumerus -33.9429 -6.02477 -74.0464
rradius 33.9188
rwrist -12.4451
rhand -25.1417 13.8761
rfingers 7.12502
rthumb 1.37475 -16.0992
lclavicle -2.127e-014 4.45278e-014
lhumerus -39.6797 14.2227 77.8984
lradius 27.9514
lwrist 1.76932
lhand -18.8346 22.1955
lfingers 7.12502
lthumb 7.46484 52.0438
rfemur -11.0036 -4.87502 26.8095
rtibia 33.9908
rfoot -22.4141 -0.957612
rtoes 15.0363
lfemur -24.1314 11.0885 -14.276
ltibia 49.6361
lfoot -18.2634 1.21938
ltoes -4.4825
740
root 18.966 23.8776 22.1985 -174.461 27.8227 -172.502
lowerback 7.91819 -0.626928 7.69845
upperback 3.48528 0.314095 5.00957
thorax -0.828189 0.409476 0.847862
lowerneck -11.1954 -0.356071 -6.3471
upperneck 40.1244 7.05678 -2.1713
head 16.2353 3.10141 1.7555
rclavicle -8.54774e-015 8.74653e-014
rhumerus -34.2887 -5.93833 -74.0707
rradius 34.398
rwrist -13.7894
rhand -26.1604 12.6742
rfingers 7.12502
rthumb 0.390867 -17.3052
lclavicle -8.54774e-015 8.74653e-014
lhumerus -39.8109 14.0554 77.761
lradius 27.8489
lwrist 1.64173
lhand -18.537 23.2006
lfingers 7.12502
lthumb 7.75202 53.0385
rfemur -11.0162 -5.11474 27.1899
rtibia 34.1025
rfoot -22.5535 -1.29592
rtoes 14.8728
lfemur -23.9937 11.7368 -14.1171
ltibia 49.3972
lfoot -17.5285 0.865392
ltoes -2.35142
741
root 18.9797 23.8637 22.197 -174.423 27.3111 -172.262
lowerback 7.87687 -0.477312 7.80387
upperback 3.43469 0.529883 5.09382
thorax -0.849324 0.519452 0.858766
lowerneck -11.2171 -0.473336 -6.40099
upperneck 40.1894 6.90807 -2.06966
head 16.2711 3.05703 1.7922
rclavicle -1.74931e-014 3.65764e-014
rhumerus -34.4759 -6.29557 -73.5497
rradius 34.1737
rwrist -12.998
rhand -25.0453 13.9272
rfingers 7.12502
rthumb 1.46784 -16.0475
lclavicle -1.74931e-014 3.65764e-014
lhumerus -39.8431 14.0231 77.6749
lradius 27.5713
lwrist 1.71203
lhand -18.4176 23.3081
lfingers 7.12502
lthumb 7.86726 53.1417
rfemur -10.9613 -5.12749 27.5218
rtibia 34.1649
rfoot -22.5669 -1.69533
rtoes 15.3055
lfemur -23.6847 12.1679 -13.9674
ltibia 49.0735
lfoot -16.9094 0.782926
ltoes 0.339202
